<svg id="Layer_1" data-name="Layer 1" xmlns="http://www.w3.org/2000/svg" viewBox="0 0 24 24"><defs><style>.cls-1{fill:none;}.cls-2{fill:#fbc02d;}.cls-3{fill:#231f20;}</style></defs><title>Artboard 2</title><path class="cls-1" d="M0,0H24V24H0Z"/><path class="cls-2" d="M12,20.5A5.5,5.5,0,1,1,17.5,15,5.51,5.51,0,0,1,12,20.5Zm-2.6-1.91L12,17l2.61,1.57-.69-3,2.3-2-3-.26L12,10.57l-1.19,2.8-3,.26,2.3,2Z"/><path class="cls-3" d="M11.69,10l-.61,1.45-.61,1.44L8.91,13l-1.56.13A5,5,0,0,1,11.69,10m.62,0a5,5,0,0,1,4.33,3.15L15.09,13l-1.56-.13-.61-1.43L12.31,10m4.53,3.74A5.16,5.16,0,0,1,17,15a5,5,0,0,1-1.82,3.85l-.35-1.53-.36-1.52,1.18-1,1.19-1m-9.68,0,1.19,1,1.18,1-.36,1.52-.35,1.53A5,5,0,0,1,7,15a5.16,5.16,0,0,1,.16-1.25M12,17.6l1.34.81,1.34.8a5,5,0,0,1-5.36,0l1.34-.81L12,17.6M12,9a6,6,0,1,0,6,6,6,6,0,0,0-6-6Zm-1.85,8.55.5-2.11L9,14l2.16-.18.84-2,.84,2L15,14l-1.64,1.42.5,2.11L12,16.43l-1.86,1.12Z"/><polygon class="cls-2" points="15.5 3.51 17.49 3.51 17.5 6.65 15.5 7.31 15.5 3.51"/><path class="cls-3" d="M17,4V6.29l-1,.33V4h1m1-1H15V8l3-1V3Z"/><polygon class="cls-2" points="6.5 6.65 6.51 3.51 8.49 3.51 8.49 7.31 6.5 6.65"/><path class="cls-3" d="M8,4V6.62L7,6.29V4H8M9,3H6V7L9,8V3Z"/><polygon class="cls-2" points="10.48 7.97 10.48 3.51 13.51 3.51 13.51 7.97 12 8.47 10.48 7.97"/><path class="cls-3" d="M13,4v3.6L12,8l-1-.34V4h2m1-1H10V8.33L12,9l2-.67V3Z"/></svg>